<svg width="139" height="193" viewBox="0 0 139 193" fill="none" xmlns="http://www.w3.org/2000/svg">
<path d="M40 12L93 9C114.023 88.537 112.946 107.699 107 161C107 161 81.5 166.5 66 167C50.5 167.5 29 161 29 161C19 84 18.5 75.5 40 12Z" fill="#FFFDFD"/>
<path d="M63 93.5C50 89.1667 27.9 78.5 43.5 70.5C63 60.5 101 59.5 91 72.5C81 85.5 80 105.5 85.5 102" stroke="white" stroke-width="2"/>
<path d="M34 61.0256L20.5 51L11.5 65.5L0 133.5L16.5 141L30.5 165.5L34 61.0256Z" fill="#282828"/>
<path d="M97.5574 61.956L110.876 51.1732L120.932 65.1357L136.533 132.372L119.99 140.805L101.5 169L97.5574 61.956Z" fill="#282828"/>
<path d="M37.5 148L56.1195 181.75H18.8805L37.5 148Z" fill="#FF9900"/>
<path d="M93.5 148L112.12 181.75H74.8805L93.5 148Z" fill="#FF9900"/>
<path d="M39.5 0L66 6.56311V26.8255L51 16.6602L34.7684 52H23V26.8255L39.5 0Z" fill="#282828"/>
<path d="M91.2674 0L66 6.56311V26.8255L80.3023 16.6602L95.7789 52H107V26.8255L91.2674 0Z" fill="#282828"/>
<path d="M65.6482 60.0706L44.4428 26.0977L86.6291 25.9586L65.6482 60.0706Z" fill="#FF9900"/>
<path d="M79.5 15.0477L66 26.2977L86.9256 26.3718L79.5 15.0477Z" fill="#FF9900"/>
<path d="M51 14.5L44.5 26.3921H65.6796L51 14.5Z" fill="#FF9900"/>
</svg>
